<svg version="1.1" id="Layer_1" xmlns="http://www.w3.org/2000/svg" xmlns:xlink="http://www.w3.org/1999/xlink" x="0px" y="0px"
	 width="100px" height="100px" viewBox="0 0 100 100" enable-background="new 0 0 100 100" xml:space="preserve">
<rect x="4" y="12" display="none" fill="#005695" width="96" height="74"/>
<path fill="none" stroke="#005695" stroke-width="3" stroke-miterlimit="10" d="M72.734,35.874c0,4.633-11.29,8.39-25.186,8.39
	s-25.185-3.756-25.185-8.39c0-4.646,11.289-8.401,25.185-8.401S72.734,31.228,72.734,35.874z"/>
<path fill="none" stroke="#005695" stroke-width="3" stroke-miterlimit="10" d="M64.34,91.833c0,3.094-7.523,5.597-16.792,5.597
	c-9.263,0-16.79-2.503-16.79-5.597"/>
<path fill="none" stroke="#005695" stroke-width="3" stroke-miterlimit="10" d="M30.524,92.124"/>
<path fill="none" stroke="#005695" stroke-width="3" stroke-miterlimit="10" d="M23.646,37.558"/>
<line fill="none" stroke="#005695" stroke-width="3" stroke-miterlimit="10" x1="70.633" y1="39.54" x2="64.34" y2="92.124"/>
<line fill="none" stroke="#005695" stroke-width="3" stroke-miterlimit="10" x1="24.579" y1="39.54" x2="30.875" y2="92.124"/>
<path fill="none" stroke="#005695" stroke-width="3" stroke-miterlimit="10" d="M23.763,38.71c0-6.215,10.486-9.825,23.609-9.825
	c13.125,0,23.962,3.609,23.962,9.825"/>
<path fill="none" stroke="#005695" stroke-width="3" stroke-miterlimit="10" d="M70.14,42.439
	c21.065-3.511,9.939,26.947-3.354,30.914"/>
<path fill="none" stroke="#005695" stroke-width="3" stroke-miterlimit="10" d="M70.984,47.525
	c10.395-1.852,5.642,15.499-2.1,15.499"/>
<path opacity="0.75" fill="#005695" d="M61.675,56.004c-1.982-3.053-14.037-4.54-19.973-0.684c-5.941,3.856-9.15,9.456-7.168,12.509
	c1.983,3.048,10.51,4.438,16.448,0.579C56.924,64.553,63.657,59.052,61.675,56.004z M59.687,56.477
	c-2.203,2.09-5.264,5.978-10.666,5.978c-5.405,0-16.75,5.488-10.227,1.813c0.864-0.491,5.332-3.872,10.733-3.872
	C54.935,60.396,62.981,53.351,59.687,56.477z"/>
<g>
	<path opacity="0.5" fill="#005695" d="M40.025,24.013c2.933,4.201,0.125,13.155-0.73,13.702c-0.851,0.546,0.155-9.133-2.837-12.407
		c-2.995-3.275-5.951-13.135-7.633-15.363C26.1,6.337,37.031,20.738,40.025,24.013"/>
	<path opacity="0.5" fill="#005695" d="M49.42,20.661c3.927,5.84-1.236,18.982-2.572,19.838c-1.328,0.856,1.221-13.195-2.893-17.696
		c-4.117-4.499-7.461-18.511-9.731-21.601C30.545-3.801,45.305,16.16,49.42,20.661"/>
	<path opacity="0.5" fill="#005695" d="M58.515,21.226c2.68,5.808-3.063,16.639-4.274,17.184s2.435-11.507-0.549-16.16
		C50.707,17.6,49.388,4.635,47.81,1.532C45.247-3.494,55.534,16.575,58.515,21.226"/>
</g>
</svg>