<svg version="1.1" id="Layer_1" xmlns="http://www.w3.org/2000/svg" xmlns:xlink="http://www.w3.org/1999/xlink" x="0px" y="0px"
	 width="100px" height="100px" viewBox="0 0 100 100" enable-background="new 0 0 100 100" xml:space="preserve">
<g>
	<path fill="none" stroke="#FFF" stroke-width="3" stroke-miterlimit="10" d="M16.916,16.795
		c0.55,5.948,1.101,11.896,1.649,17.844c1.182,12.779,0.76,25.989,2.13,38.744c0.447,4.149,2.129,7.717,1.799,11.868
		c-0.142,1.792,1.889,10.47,4.648,10.095c2.102-0.283,5.444-7.428,6.639-8.946c0.637-0.813,1.971-3.729,2.579-4.562
		c5.5-7.542,8.206-11.417,14.602-18.173c1.679-1.775,3.359-3.548,5.04-5.323c6.227-6.583,12.454-13.165,18.683-19.747
		c1.2-1.268,2.399-2.537,3.601-3.807c0,0,8.89-6.451,8.112-9.47c-0.914-3.549-10.073-5.425-13.727-5.139
		c-2.877,0.226-6.507-0.664-9.299-1.396c-1.911-0.5-3.539-1.991-5.142-3.148c-2.745-1.981-4.573-3.948-7.954-3.794
		c-1.832,0.084-5.743,0.256-7.503-0.262c-2.577-0.758-7.931-1.078-9.983-2.816c-1.689-1.433-11.686-5.196-13.524-3.96
		C16.729,6.505,16.916,16.795,16.916,16.795z"/>
	<path fill="none" stroke="#FFF" stroke-width="2" stroke-miterlimit="10" d="M16.863,12.812c0,0,12.292,6.101,16.424,6.756
		c2.693,0.427,7.884,0.595,10.553,1.161c4.355,0.922,11.776,5.559,15.957,7.099c2.373,0.874,7.569,0.59,10.036,1.148
		c2.671,0.603,10.055,4.35,10.055,4.35"/>
	<path opacity="0.75" fill="#FFF" d="M37.294,48.487c-1.21,3.461-4.35,3.865-7.811,2.655c-3.46-1.209-5.224-3.03-4.014-6.491
		c1.21-3.46,4.997-5.284,8.457-4.074C37.387,41.788,38.504,45.028,37.294,48.487z"/>
	<path opacity="0.75" fill="#FFF" d="M48.998,58.538c-2.548,2.823-5.627,2.025-8.336-0.423c-2.71-2.447-3.595-4.834-1.045-7.658
		c2.548-2.821,6.811-3.125,9.522-0.677C51.847,52.228,51.547,55.715,48.998,58.538z"/>
	<path opacity="0.75" fill="#FFF" d="M38.818,68.243c-1.146,3.277-5.449,4.506-8.726,3.361c-3.276-1.146-4.946-2.869-3.8-6.146
		c1.146-3.276,4.73-5.003,8.007-3.857C37.576,62.747,39.963,64.968,38.818,68.243z"/>
	<path opacity="0.75" fill="#FFF" d="M66.609,40.166c-1.144,3.272-4.112,3.654-7.384,2.509c-3.272-1.143-4.94-2.864-3.795-6.136
		c1.145-3.273,4.724-4.998,7.996-3.853C66.698,33.831,67.754,36.894,66.609,40.166z"/>
	<path opacity="0.75" fill="#FFF" d="M49.808,39.122c-2.444,3.335-5.963,2.737-9.299,0.293c-3.334-2.443-4.64-4.987-2.195-8.322
		c2.444-3.335,7.128-4.057,10.464-1.613C52.113,31.924,52.252,35.787,49.808,39.122z"/>
	<path opacity="0.75" fill="#FFF" d="M33.683,30.88c-1.243,3.554-4.467,3.969-8.021,2.727c-3.554-1.243-5.365-3.112-4.122-6.666
		c1.243-3.555,5.131-5.427,8.685-4.186C33.779,23.999,34.927,27.326,33.683,30.88z"/>
</g>
</svg>
