<svg version="1.1" id="Layer_1" xmlns="http://www.w3.org/2000/svg" xmlns:xlink="http://www.w3.org/1999/xlink" x="0px" y="0px"
	 width="100px" height="100px" viewBox="0 0 100 100" enable-background="new 0 0 100 100" xml:space="preserve">
<rect x="4" y="12" display="none" fill="#FFF" width="96" height="74"/>
<path fill="none" stroke="#FFF" stroke-width="3" stroke-miterlimit="10" d="M74.734,35.874c0,4.633-11.29,8.39-25.186,8.39
	s-25.185-3.756-25.185-8.39c0-4.646,11.289-8.401,25.185-8.401S74.734,31.228,74.734,35.874z"/>
<path fill="none" stroke="#FFF" stroke-width="3" stroke-miterlimit="10" d="M66.34,91.833c0,3.094-7.523,5.597-16.792,5.597
	c-9.263,0-16.79-2.503-16.79-5.597"/>
<path fill="none" stroke="#FFF" stroke-width="3" stroke-miterlimit="10" d="M32.524,92.124"/>
<path fill="none" stroke="#FFF" stroke-width="3" stroke-miterlimit="10" d="M25.646,37.558"/>
<line fill="none" stroke="#FFF" stroke-width="3" stroke-miterlimit="10" x1="72.633" y1="39.54" x2="66.34" y2="92.124"/>
<line fill="none" stroke="#FFF" stroke-width="3" stroke-miterlimit="10" x1="26.579" y1="39.54" x2="32.875" y2="92.124"/>
<path fill="none" stroke="#FFF" stroke-width="3" stroke-miterlimit="10" d="M25.763,38.71c0-6.215,10.486-9.825,23.609-9.825
	c13.125,0,23.962,3.609,23.962,9.825"/>
<path opacity="0.75" fill="#FFF" d="M63.675,56.004c-1.982-3.053-14.037-4.54-19.973-0.684c-5.941,3.856-9.15,9.456-7.168,12.509
	c1.983,3.048,10.51,4.438,16.448,0.579C58.924,64.553,65.657,59.052,63.675,56.004z M61.687,56.477
	c-2.203,2.09-5.264,5.978-10.666,5.978c-5.405,0-16.75,5.488-10.227,1.813c0.864-0.491,5.332-3.872,10.733-3.872
	C56.935,60.396,64.981,53.351,61.687,56.477z"/>
<g>
	<path opacity="0.5" fill="#FFF" d="M42.285,25.145c2.731,3.913,0.116,12.253-0.68,12.763c-0.793,0.509,0.145-8.507-2.643-11.557
		c-2.79-3.05-5.543-12.235-7.11-14.311C29.313,8.681,39.495,22.095,42.285,25.145"/>
	<path opacity="0.5" fill="#FFF" d="M51.035,22.023c3.658,5.44-1.151,17.682-2.396,18.479
		c-1.237,0.797,1.137-12.291-2.694-16.483c-3.834-4.191-6.95-17.243-9.064-20.121C33.454-0.763,47.203,17.831,51.035,22.023"/>
	<path opacity="0.5" fill="#FFF" d="M59.507,22.549c2.496,5.41-2.854,15.499-3.981,16.006
		c-1.128,0.508,2.268-10.719-0.512-15.052c-2.779-4.331-4.008-16.408-5.479-19.298C47.148-0.477,56.73,18.217,59.507,22.549"/>
</g>
</svg>
