<svg version="1.1" id="Layer_1" xmlns="http://www.w3.org/2000/svg" xmlns:xlink="http://www.w3.org/1999/xlink" x="0px" y="0px"
	 width="100px" height="100px" viewBox="0 0 100 100" enable-background="new 0 0 100 100" xml:space="preserve">
<path fill="none" stroke="#FFF" stroke-width="3" stroke-miterlimit="10" d="M39.169,151.822
	c-0.511-1.785,0.739-3.379,0.792-5.096c0.05-1.678-0.425-3.463,0.097-5.018c1.187-3.492,0.566-6.996,0.688-10.488
	c0.124-3.467,0.13-6.943-0.003-10.41c-0.126-3.271-0.183-6.582-0.864-9.783c-0.604-2.836-0.948-5.695-1.56-8.518
	c-0.617-2.832-1.788-5.584-1.554-8.52c-1.269-1.348-0.323-3.039-0.899-4.396c-0.636-1.498-0.314-3.025-0.775-4.438
	c-1.125-3.488-0.883-7.154-2.262-10.617c-0.591-1.479,0.304-3.207-0.811-4.77c-0.477-0.67,0.042-1.869-0.468-2.488
	c-0.314-0.379-1.89,0.125-2.62-0.199c-2.234-0.998-5.149-0.193-7.069-1.955c-0.307-0.281-0.938-0.291-1.319-0.535
	c-0.522-0.336-0.943-0.775-1.409-1.174c0.616-0.109,1.247-0.355,1.843-0.299c1.494,0.148,1.494-0.643,1.325-1.438
	c-0.125-0.6-0.67-1.148-0.731-1.74c-0.076-0.746-0.428-0.852-1.221-0.904c-2.568-0.164-5.133-0.379-7.677-0.688
	c-0.554-0.066-1.024-0.613-1.531-0.939c0.352-0.314,0.655-0.688,1.07-0.932c0.396-0.23,0.883-0.414,1.358-0.477
	c2.868-0.379,4.722-1.375,3.966-4.18c-0.213-0.787,0.575-0.711,1.21-0.882c3.074-0.812,5.52-2.658,8.736-3.434
	c3.053-0.735,6.1-1.682,9.134-2.56c0.121-0.035,0.276,0.024,0.399-0.009c2.697-0.798,2.812-1.244,0.624-2.935
	c-0.836-0.643-1.859-1.108-2.767-1.683c-0.522-0.334-0.652-0.607,0.205-0.774c0.712-0.137,1.423-0.679,2.07-0.61
	c2.156,0.229,3.271-0.242,2.869-2.246c-0.03-0.119,0.526-0.459,0.812-0.459c0.568-0.002,1.331-0.319,1.584,0.539
	c0.09,0.303,0.554,0.712,0.89,0.744c0.912,0.083,1.848,0.032,2.759-0.072c0.155-0.017,0.199-0.564,0.336-0.854
	c0.389-0.854-1.039-2.379,1.318-2.53c0.109-0.005,0.25-0.354,0.271-0.554c0.28-2.592,0.733-5.186,0.774-7.78
	c0.104-7.275,0.036-14.554,0.04-21.831c0-0.557,0.01-1.112,0.047-1.665C48.849,2.144,49.088,1.99,49.104,2
	c0.179,0.104,0.463,0.229,0.474,0.36c0.056,0.557,0.021,1.118,0.021,1.679c0,4.699,0.228,9.411-0.058,14.103
	c-0.311,4.988,0.896,9.878,0.898,14.836c0,0.805,0.587,1.595,0.741,2.414c0.186,1,0.72,1.065,1.547,0.528
	c1.021-0.661,1.671-0.725,1.694,0.588c0,0.081,0.15,0.221,0.246,0.237c0.988,0.172,2.144,0.114,2.923,0.543
	c0.78,0.428,1.105,1.394,1.786,2.009c0.274,0.249,0.948,0.218,1.45,0.259c1.018,0.086,1.02,0.676,0.604,1.132
	c-0.634,0.708-1.491,1.271-2.227,1.925c-1.182,1.044-0.902,1.833,0.825,2.322c0.941,0.264,1.925,0.433,2.871,0.684
	c2.716,0.713,5.636,1.131,8.089,2.253c2.757,1.263,5.951,1.447,8.604,2.932c0.844,0.474,1.411,0.663,1.3,1.565
	c-0.08,0.662-0.072,1.344,0.016,2.01c0.027,0.23,0.444,0.635,0.632,0.615c2.4-0.236,4.259,1.301,6.554,1.377c0,0.221,0,0.445,0,0.67
	c-3.346,0.635-6.6,1.732-10.137,1.348c-0.868-0.098-1.176,0.258-1.1,0.957c0.046,0.445,0.077,0.904-0.008,1.338
	c-0.105,0.553-0.666,1.285-0.422,1.59c0.354,0.439,1.248,0.605,1.945,0.799c0.357,0.1,0.849-0.08,1.177,0.049
	c0.255,0.104,0.427,0.475,0.497,0.752c0.034,0.152-0.184,0.486-0.35,0.516c-3.528,0.697-6.954,1.738-10.585,2.064
	c-0.889,0.082-2.144-0.047-2.543,0.379c-0.447,0.469-0.044,1.43-0.889,2.031c-0.263,0.189-0.008,0.855-0.05,1.303
	c-0.251,3.146-0.525,6.295-0.794,9.443c-0.02,0.219,0.076,0.523-0.063,0.643c-1.543,1.338-0.409,2.977-0.728,4.445
	c-0.318,1.463-0.792,2.945-0.764,4.412c0.058,2.959-1.461,5.795-0.856,8.775c0.023,0.109,0.061,0.266-0.005,0.328
	c-1.439,1.328-0.559,2.945-0.797,4.422c-0.25,1.586-0.572,3.164-0.784,4.756c-0.225,1.588,0.109,3.148-0.685,4.793
	c-0.65,1.348-0.028,3.09-0.162,4.648c-0.131,1.48-0.691,2.939-0.733,4.416c-0.107,3.908-0.139,7.824-0.012,11.732
	c0.127,3.826-0.376,7.639,0.658,11.479c0.635,2.344,0.117,4.898,0.117,7.355C53.069,151.822,46.122,151.822,39.169,151.822z"/>
<path fill="none" stroke="#FFF" stroke-width="2" stroke-miterlimit="10" d="M50.597,101.398c0,0.793-0.051,1.139,0.02,1.477
	c0.068,0.311,0.283,0.604,0.429,0.906c0.474-0.297,0.96-0.586,1.419-0.895c0.094-0.066,0.134-0.195,0.147-0.297
	c0.343-2.193,1.293-2.053,1.609-4.252c0.518-3.75,0.65-7.84,1.466-11.508c0.624-2.807,1.059-5.658,1.735-8.451
	c0.812-3.369,1.787-6.701,2.203-10.17c0.03-0.254-0.626-0.732-1.053-0.785c-0.98-0.117-2.012-0.086-3.005-0.01
	c-0.335,0.025-2.483,0.004-2.56,0.238c-0.404,1.268-0.111,3.135-0.244,4.422c-0.442,4.332-0.774,8.898-0.935,13.248
	c-0.068,1.859,0.218,3.697,0.119,5.562C51.789,93.928,52.007,98.697,50.597,101.398z"/>
<path fill="none" stroke="#FFF" stroke-width="2" stroke-miterlimit="10" d="M46.356,79.168
	c-0.206-3.713-0.331-7.977,0.488-11.52c0.164-0.701-2.978-0.064-4.136-0.004c-0.711,0.039-1.436,0.055-2.136-0.002
	c-1.427-0.113-1.977,0.285-1.731,1.125c0.68,2.271,1.34,4.564,1.883,6.828c0.405,1.707,1.113,3.305,1.34,5.066
	c0.267,2.072,0.758,4.092,1.306,6.09c0.555,2.027,0.708,3.801,1.019,5.863c0.532,3.537,1.373,7.098,1.942,10.66
	c0.023,0.168,0.36,0.318,0.546,0.479c0.915-0.984,1.017-0.025,1.132-1.812c0.091-1.371,0.308-2.732,0.37-4.105
	c0.145-3.17-0.917-6.205-1.237-9.324c-0.292-2.838-0.569-5.68-0.738-8.531C46.388,79.713,46.372,79.441,46.356,79.168z"/>
</svg>
